<?xml version="1.0" encoding="utf-8"?>
<!-- Generator: Adobe Illustrator 22.1.0, SVG Export Plug-In . SVG Version: 6.00 Build 0)  -->
<svg version="1.1" id="Layer_1" xmlns="http://www.w3.org/2000/svg" xmlns:xlink="http://www.w3.org/1999/xlink" x="0px" y="0px"
	 viewBox="0 0 179 84" style="enable-background:new 0 0 179 84;" xml:space="preserve">
<style type="text/css">
	.st0{fill:#6D2829;}
	.st1{fill:#1D3159;}
</style>
<g>
	<g>
		<path class="st0" d="M82.5,27.7H78v-0.6c0.6,0,1-0.1,1.2-0.3c0.2-0.2,0.3-0.5,0.3-0.9v-5.1h-6.9V26c0,0.4,0.1,0.7,0.3,0.9
			c0.2,0.2,0.7,0.3,1.3,0.3v0.6h-4.5v-0.6c0.7,0,1.1-0.1,1.4-0.3c0.2-0.2,0.3-0.4,0.3-0.8V15.8c0-0.4-0.1-0.6-0.3-0.8
			c-0.2-0.2-0.7-0.3-1.3-0.3v-0.6h4.4v0.6c-0.6,0-1,0.1-1.2,0.3c-0.2,0.2-0.3,0.4-0.3,0.8v4.3h6.9v-4.3c0-0.4-0.1-0.6-0.3-0.8
			c-0.2-0.2-0.6-0.3-1.2-0.3v-0.6h4.4v0.6c-0.6,0-1.1,0.1-1.3,0.3c-0.2,0.1-0.3,0.4-0.3,0.8V26c0,0.4,0.1,0.7,0.3,0.9
			c0.2,0.2,0.7,0.3,1.4,0.3V27.7z"/>
		<path class="st0" d="M92.5,27.7h-4.6v-0.6c0.6,0,1.1-0.1,1.3-0.3c0.2-0.2,0.3-0.4,0.3-0.8V15.9c0-0.4-0.1-0.7-0.3-0.9
			c-0.3-0.2-0.7-0.3-1.3-0.3v-0.6h4.6v0.6c-0.2,0-0.4,0-0.6,0c-0.2,0-0.3,0.1-0.5,0.1c-0.2,0.1-0.4,0.2-0.5,0.4
			c-0.1,0.2-0.1,0.4-0.1,0.6v10.1c0,0.4,0.1,0.6,0.3,0.8c0.3,0.2,0.7,0.3,1.4,0.3V27.7z"/>
		<path class="st0" d="M108.6,24.4l-1.3,3.4h-9.5v-0.6c0.7,0,1.1-0.1,1.4-0.3c0.2-0.2,0.3-0.4,0.3-0.8V15.9c0-0.4-0.1-0.7-0.3-0.9
			c-0.3-0.2-0.7-0.3-1.5-0.3v-0.6h4.9v0.6c-0.8,0-1.4,0.1-1.6,0.3c-0.2,0.2-0.3,0.5-0.3,0.9V26c0,0.4,0.1,0.7,0.3,0.8
			c0.2,0.2,0.5,0.2,1,0.2h2.2c0.9,0,1.6-0.2,2.2-0.7c0.6-0.4,1.2-1.2,1.8-2.2L108.6,24.4z"/>
		<path class="st0" d="M124.4,24.4l-1.3,3.4h-9.5v-0.6c0.7,0,1.1-0.1,1.4-0.3c0.2-0.2,0.3-0.4,0.3-0.8V15.9c0-0.4-0.1-0.7-0.3-0.9
			c-0.3-0.2-0.7-0.3-1.5-0.3v-0.6h4.9v0.6c-0.8,0-1.4,0.1-1.6,0.3c-0.2,0.2-0.3,0.5-0.3,0.9V26c0,0.4,0.1,0.7,0.3,0.8
			c0.2,0.2,0.5,0.2,1,0.2h2.2c0.9,0,1.6-0.2,2.2-0.7c0.6-0.4,1.2-1.2,1.8-2.2L124.4,24.4z"/>
		<path class="st0" d="M137.8,14.8c-0.4,0-0.8,0.1-1.1,0.3c-0.1,0.1-0.2,0.2-0.3,0.3c-0.1,0.1-0.2,0.3-0.4,0.6l-3.3,6v4
			c0,0.4,0.1,0.6,0.3,0.8c0.3,0.2,0.8,0.3,1.6,0.3v0.6h-5v-0.6c0.4,0,0.7,0,1-0.1c0.3,0,0.5-0.1,0.6-0.2c0.2-0.1,0.3-0.4,0.3-0.8
			v-3.8l-3.6-6.6c-0.2-0.3-0.3-0.5-0.6-0.6c-0.2-0.1-0.6-0.2-1-0.2v-0.6h4.4v0.6c-0.3,0-0.6,0-0.9,0c-0.3,0-0.4,0.1-0.6,0.1
			c-0.1,0.1-0.1,0.1-0.1,0.2c0,0.1,0,0.2,0.1,0.3l3,5.7l3-5.4c0.1-0.1,0.1-0.2,0.1-0.3c0-0.1,0-0.2-0.1-0.3
			c-0.2-0.2-0.7-0.3-1.5-0.3v-0.6h4V14.8z"/>
		<path class="st0" d="M82.2,43.1c-0.7,0-1.2,0.1-1.4,0.3c-0.2,0.2-0.3,0.5-0.3,0.9v4.3h-0.9l-0.3-0.8c-0.9,0.8-2.1,1.1-3.5,1.1
			c-1.8,0-3.2-0.6-4.3-1.9c-1.1-1.3-1.6-3-1.6-5.1c0-2,0.6-3.7,1.7-5.1c1.2-1.3,2.6-2,4.3-2c0.3,0,0.6,0,0.9,0.1
			c0.3,0,0.6,0.1,0.9,0.2c0.1,0.1,0.3,0.1,0.4,0.1c0.1,0,0.2,0.1,0.4,0.1c0.2-0.1,0.4-0.1,0.7-0.2s0.4-0.1,0.7-0.2l1.3,3.5
			c-0.1,0.1-0.2,0.1-0.2,0.1c-0.1,0-0.2,0.1-0.2,0.1c-0.2-0.4-0.5-0.8-0.8-1.1c-0.3-0.3-0.6-0.6-0.9-0.9c-0.8-0.7-1.8-1-2.9-1
			c-0.7,0-1.3,0.2-1.8,0.5c-0.5,0.3-1,0.8-1.5,1.3c-1,1.2-1.5,2.7-1.5,4.4c0,1.9,0.4,3.4,1.3,4.6c0.4,0.5,0.9,0.9,1.5,1.3
			c0.6,0.3,1.2,0.5,1.8,0.5c0.5,0,0.9-0.1,1.3-0.2c0.4-0.1,0.8-0.3,1.1-0.4c0.2-0.2,0.5-0.3,0.6-0.5c0.2-0.2,0.3-0.4,0.4-0.6
			c0.1-0.2,0.1-0.5,0.1-0.7v-1.5c0-0.5-0.1-0.8-0.3-0.9c-0.2-0.2-0.8-0.3-1.5-0.3v-0.7h4.7V43.1z"/>
		<path class="st0" d="M99.9,48.7h-4.8V48c0.6,0,1,0,1.3-0.1s0.4-0.2,0.5-0.3c0,0,0-0.1,0-0.1c0-0.1,0-0.1,0-0.2
			c0-0.1-0.1-0.1-0.1-0.2c-0.1-0.1-0.1-0.2-0.1-0.3c0-0.1-0.1-0.2-0.1-0.3l-0.9-2.5h-5.3l-1,2.8c-0.1,0.1-0.1,0.2-0.1,0.4
			c0,0.1,0,0.2,0,0.3c0,0.2,0,0.3,0.1,0.3c0.1,0.2,0.6,0.4,1.6,0.4v0.7h-4.2V48c0.3,0,0.6,0,0.8-0.1c0.2-0.1,0.4-0.2,0.6-0.5
			c0.1-0.1,0.2-0.3,0.3-0.4c0.1-0.2,0.2-0.4,0.3-0.6l3.9-11.1l1-0.5l4.6,12c0.2,0.4,0.4,0.8,0.6,1c0.3,0.2,0.7,0.3,1.3,0.3V48.7z
			 M95.3,43l-2.5-6.6L90.5,43H95.3z"/>
		<path class="st0" d="M115.4,45.3l-1.3,3.4h-9.5V48c0.7,0,1.1-0.1,1.4-0.3c0.2-0.2,0.3-0.4,0.3-0.8V36.9c0-0.4-0.1-0.7-0.3-0.9
			c-0.3-0.2-0.7-0.3-1.5-0.3v-0.6h4.9v0.6c-0.8,0-1.4,0.1-1.6,0.3c-0.2,0.2-0.3,0.5-0.3,0.9V47c0,0.4,0.1,0.7,0.3,0.8
			c0.2,0.2,0.5,0.2,1,0.2h2.2c0.9,0,1.6-0.2,2.2-0.7c0.6-0.4,1.2-1.2,1.8-2.2L115.4,45.3z"/>
		<path class="st0" d="M131.2,45.3l-1.3,3.4h-9.5V48c0.7,0,1.1-0.1,1.4-0.3c0.2-0.2,0.3-0.4,0.3-0.8V36.9c0-0.4-0.1-0.7-0.3-0.9
			c-0.3-0.2-0.7-0.3-1.5-0.3v-0.6h4.9v0.6c-0.8,0-1.4,0.1-1.6,0.3c-0.2,0.2-0.3,0.5-0.3,0.9V47c0,0.4,0.1,0.7,0.3,0.8
			c0.2,0.2,0.5,0.2,1,0.2h2.2c0.9,0,1.6-0.2,2.2-0.7c0.6-0.4,1.2-1.2,1.8-2.2L131.2,45.3z"/>
		<path class="st0" d="M146.9,45.1c0.1,0,0.1,0.1,0.2,0.1c0.1,0,0.1,0.1,0.2,0.1c-0.2,0.6-0.4,1.1-0.6,1.7c-0.2,0.6-0.4,1.1-0.6,1.6
			h-10V48c0.6,0,1-0.1,1.3-0.3c0.2-0.2,0.3-0.5,0.3-0.9v-10c0-0.1,0-0.3-0.1-0.4c-0.1-0.2-0.1-0.3-0.2-0.4c-0.2-0.2-0.7-0.3-1.3-0.3
			v-0.6h9.6c0.2,0.6,0.4,1.1,0.7,1.6c0.2,0.5,0.4,1.1,0.7,1.6c-0.1,0-0.1,0.1-0.2,0.1c-0.1,0-0.1,0.1-0.2,0.1
			c-0.3-0.5-0.6-1-0.9-1.3c-0.3-0.4-0.6-0.6-0.9-0.8c-0.7-0.5-1.5-0.7-2.4-0.7h-2.1c-0.4,0-0.8,0.1-1,0.3c-0.2,0.2-0.3,0.4-0.3,0.8
			v4.4h2.9c0.6,0,1-0.1,1.3-0.4c0.3-0.3,0.4-1,0.4-1.9h0.6v5.4h-0.6c0-1-0.1-1.6-0.4-1.9c-0.2-0.3-0.7-0.4-1.3-0.4h-2.9v4.9
			c0,0.4,0.1,0.7,0.3,0.9c0.1,0.1,0.3,0.2,0.5,0.2c0.2,0,0.4,0,0.6,0h2.2c1,0,1.8-0.2,2.4-0.6c0.3-0.2,0.7-0.5,1-0.9
			C146.2,46.1,146.5,45.6,146.9,45.1z"/>
		<path class="st0" d="M163.9,48.7h-2.5c-0.6-1.1-1.2-2.2-1.8-3.2c-0.6-1.1-1.2-2.2-1.8-3.3h-2.5v4.7c0,0.5,0.1,0.8,0.3,1
			c0.3,0.2,0.8,0.3,1.4,0.3v0.6h-4.8V48c0.7,0,1.2-0.1,1.5-0.3c0.2-0.2,0.3-0.5,0.3-0.9v-9.9c0-0.4-0.1-0.6-0.4-0.8
			c-0.2-0.2-0.7-0.3-1.4-0.3v-0.7h6c3,0,4.4,1.2,4.4,3.5c0,0.8-0.2,1.5-0.6,2.1c-0.6,0.8-1.6,1.3-2.9,1.4c0.5,0.9,1,1.7,1.5,2.6
			c0.5,0.9,1,1.7,1.5,2.6c0.2,0.3,0.4,0.5,0.7,0.6c0.3,0.1,0.7,0.2,1.2,0.2V48.7z M161.3,38.6c0-0.8-0.3-1.5-0.8-2
			c-0.6-0.5-1.3-0.7-2.3-0.7h-1.7c-0.5,0-0.8,0.1-1,0.2c-0.2,0.2-0.3,0.4-0.3,0.8v4.5h3.2c0.8,0,1.5-0.3,2.1-0.8
			c0.3-0.3,0.5-0.6,0.6-0.9C161.3,39.4,161.3,39,161.3,38.6z"/>
		<path class="st0" d="M179,35.7c-0.4,0-0.8,0.1-1.1,0.3c-0.1,0.1-0.2,0.2-0.3,0.3c-0.1,0.1-0.2,0.3-0.4,0.6l-3.3,6v4
			c0,0.4,0.1,0.6,0.3,0.8c0.3,0.2,0.8,0.3,1.6,0.3v0.6h-5V48c0.4,0,0.7,0,1-0.1c0.3,0,0.5-0.1,0.6-0.2c0.2-0.1,0.3-0.4,0.3-0.8v-3.8
			l-3.6-6.6c-0.2-0.3-0.3-0.5-0.6-0.6c-0.2-0.1-0.6-0.2-1-0.2v-0.6h4.4v0.6c-0.3,0-0.6,0-0.9,0c-0.3,0-0.4,0.1-0.6,0.1
			c-0.1,0.1-0.1,0.1-0.1,0.2c0,0.1,0,0.2,0.1,0.3l3,5.7l3-5.4c0.1-0.1,0.1-0.2,0.1-0.3c0-0.1,0-0.2-0.1-0.3
			c-0.2-0.2-0.7-0.3-1.5-0.3v-0.6h4V35.7z"/>
		<path class="st0" d="M80.4,65.6c0.1,0,0.2,0.1,0.3,0.1c0.1,0.1,0.2,0.1,0.3,0.1c-0.5,1.3-1.2,2.3-2,2.9c-0.9,0.7-2,1.1-3.2,1.1
			c-0.9,0-1.7-0.2-2.4-0.5c-0.7-0.3-1.4-0.9-1.9-1.5c-1-1.3-1.5-3-1.5-5c0-2,0.5-3.7,1.5-5c1-1.4,2.4-2.1,4-2.1c1,0,1.9,0.2,2.7,0.6
			c0.2-0.1,0.4-0.2,0.6-0.2c0.2-0.1,0.4-0.1,0.6-0.2c0.2,0.6,0.5,1.2,0.7,1.8c0.2,0.6,0.5,1.2,0.7,1.8c-0.1,0-0.2,0.1-0.3,0.1
			c-0.1,0-0.2,0.1-0.3,0.1c-0.5-0.9-1.1-1.6-1.7-2.1c-0.7-0.5-1.4-0.9-2.2-1c-0.1,0-0.3,0-0.4,0c-0.1,0-0.3,0-0.4,0
			c-0.9,0-1.7,0.4-2.3,1.1c-0.2,0.2-0.4,0.5-0.6,0.8c-0.8,1.2-1.2,2.6-1.2,4.3c0,1.7,0.4,3.1,1.3,4.2c0.1,0.1,0.2,0.3,0.4,0.4
			c0.1,0.1,0.2,0.2,0.4,0.3c0.4,0.4,0.8,0.7,1.3,0.9c0.5,0.2,1,0.3,1.5,0.3c0.8,0,1.6-0.3,2.4-0.9C79.3,67.3,80,66.5,80.4,65.6z"/>
		<path class="st0" d="M98.9,69.6H94v-0.7c0.6,0,1,0,1.3-0.1s0.4-0.2,0.5-0.3c0,0,0-0.1,0-0.1c0-0.1,0-0.1,0-0.2
			c0-0.1-0.1-0.1-0.1-0.2c-0.1-0.1-0.1-0.2-0.1-0.3c0-0.1-0.1-0.2-0.1-0.3l-0.9-2.5h-5.3l-1,2.8c-0.1,0.1-0.1,0.2-0.1,0.4
			c0,0.1,0,0.2,0,0.3c0,0.2,0,0.3,0.1,0.3c0.1,0.2,0.6,0.4,1.6,0.4v0.7h-4.2v-0.7c0.3,0,0.6,0,0.8-0.1c0.2-0.1,0.4-0.2,0.6-0.5
			c0.1-0.1,0.2-0.3,0.3-0.4c0.1-0.2,0.2-0.4,0.3-0.6l3.9-11.1l1-0.5l4.6,12c0.2,0.4,0.4,0.8,0.6,1c0.3,0.2,0.7,0.3,1.3,0.3V69.6z
			 M94.3,64l-2.5-6.6L89.5,64H94.3z"/>
		<path class="st0" d="M112.9,56.1l1.3,3.2c-0.1,0.1-0.1,0.1-0.2,0.1c-0.1,0-0.1,0.1-0.2,0.1c-0.5-0.9-1.1-1.5-1.6-1.9
			c-0.4-0.3-0.8-0.5-1.2-0.6c-0.4-0.1-0.8-0.2-1.3-0.2h-1.5c-0.1,0-0.2,0-0.4,0s-0.3,0-0.4,0c-0.1,0-0.3,0-0.4,0
			c-0.1,0-0.2,0-0.3,0.1c-0.3,0.1-0.5,0.5-0.5,1v4.4h2.9c0.6,0,1.1-0.1,1.3-0.4c0.3-0.3,0.4-1,0.4-1.8h0.6v5.4H111
			c0-1-0.1-1.7-0.4-2c-0.2-0.3-0.7-0.4-1.3-0.4h-2.9v4.8c0,0.5,0.1,0.8,0.3,1c0.2,0.2,0.8,0.3,1.6,0.3v0.6h-4.8V69
			c0.7,0,1.2-0.1,1.4-0.3c0.2-0.2,0.3-0.5,0.3-1v-9.9c0-0.4-0.1-0.6-0.2-0.8c-0.2-0.2-0.7-0.3-1.4-0.3v-0.6H112.9z"/>
		<path class="st0" d="M129.8,66c0.1,0,0.1,0.1,0.2,0.1c0.1,0,0.1,0.1,0.2,0.1c-0.2,0.6-0.4,1.1-0.6,1.7c-0.2,0.6-0.4,1.1-0.6,1.6
			h-10V69c0.6,0,1-0.1,1.3-0.3c0.2-0.2,0.3-0.5,0.3-0.9v-10c0-0.1,0-0.3-0.1-0.4c-0.1-0.2-0.1-0.3-0.2-0.4c-0.2-0.2-0.7-0.3-1.3-0.3
			v-0.6h9.6c0.2,0.6,0.4,1.1,0.7,1.6c0.2,0.5,0.4,1.1,0.7,1.6c-0.1,0-0.1,0.1-0.2,0.1c-0.1,0-0.1,0.1-0.2,0.1
			c-0.3-0.5-0.6-1-0.9-1.3c-0.3-0.4-0.6-0.6-0.9-0.8c-0.7-0.5-1.5-0.7-2.4-0.7h-2.1c-0.4,0-0.8,0.1-1,0.3c-0.2,0.2-0.3,0.4-0.3,0.8
			v4.4h2.9c0.6,0,1-0.1,1.3-0.4c0.3-0.3,0.4-1,0.4-1.9h0.6v5.4h-0.6c0-1-0.1-1.6-0.4-1.9c-0.2-0.3-0.7-0.4-1.3-0.4h-2.9v4.9
			c0,0.4,0.1,0.7,0.3,0.9c0.1,0.1,0.3,0.2,0.5,0.2c0.2,0,0.4,0,0.6,0h2.2c1,0,1.8-0.2,2.4-0.6c0.3-0.2,0.7-0.5,1-0.9
			C129.2,67,129.5,66.6,129.8,66z"/>
	</g>
	<g>
		<path class="st0" d="M8.5,21.8v15.8c0,1.4,0.3,2.3,1,2.9c0.7,0.6,2,0.9,3.8,0.9v1.5H0v-1.5c1.8,0,3.1-0.3,3.8-0.9
			c0.7-0.6,1.1-1.5,1.1-2.9V5.6c0-1.2-0.3-2.1-1-2.6C3.1,2.5,1.8,2.2,0,2.2V0.8h13.4v1.4c-1.7,0-3,0.3-3.8,0.9
			C8.9,3.6,8.5,4.4,8.5,5.6v14.7 M31.3,20.3V5.6c0-1.2-0.4-2-1.3-2.6c-0.8-0.6-2-0.9-3.6-0.9V0.8h13.3v1.4c-1.7,0-3,0.3-3.8,0.9
			c-0.8,0.5-1.1,1.4-1.1,2.6v31.9c0,1.3,0.4,2.3,1.1,2.9c0.7,0.6,2,0.9,3.8,0.9v1.5H26.4v-1.5c1.6,0,2.8-0.3,3.6-0.9
			c0.8-0.6,1.3-1.6,1.3-2.9V21.8"/>
		<path class="st1" d="M14.1,53c1.7,0,2.9-0.2,3.5-0.7c0.6-0.5,0.9-1.2,0.9-2.2V24.5c0-1.2-0.3-1.9-0.9-2.3
			c-0.6-0.4-1.8-0.6-3.5-0.6v-1.1h12.2v1.1c-2,0-3.3,0.2-3.9,0.6c-0.6,0.4-0.9,1.2-0.9,2.3V50c0,1,0.2,1.7,0.7,2.2
			c0.5,0.5,1.4,0.7,2.7,0.7h4.9c2.2,0,4.3-0.7,6.2-2c1.9-1.3,3.5-3.1,4.8-5.4l0.9,0.5l-3.4,8.2H14.1V53z"/>
		<g>
			<path class="st0" d="M50.3,41.3v1.5c2.7,0,4.4,0.3,5.1,0.9c0.6,0.5,0.7,1.4,0.1,2.8l-10,17.5l-5.3-9.8l-0.8,1.9h-2.3l5.6,10.5v12
				c0,1.3-0.4,2.1-1.2,2.6c-0.8,0.5-2.5,0.8-4.9,0.8v1.5h15.8v-1.5c-2.4,0-4.1-0.3-4.9-0.8c-0.8-0.5-1.1-1.3-1.1-2.5v-13L57,46.9
				c0.9-1.7,1.6-2.8,2.3-3.2c0.9-0.6,2-0.9,3.5-0.9v-1.5H50.3z"/>
		</g>
		<g>
			<g>
				<path class="st1" d="M40.8,78c-3,1.2-6.2,1.8-9.5,1.9c-4.3-0.1-8.7-1.2-12.5-3.3c-3.7-2.2-7-5.2-9.2-8.9C7.4,64.1,6,60,5.7,55.7
					c-0.1-2.1,0-4.3-0.1-6.5l0-4.2H4.6l0,4.2c0,2.2-0.1,4.3,0.1,6.6c0.3,4.4,1.9,8.7,4.3,12.4c2.4,3.7,5.8,6.7,9.7,8.7
					c3.9,2,8.2,3.1,12.6,3.1c3.2,0,6.5-0.6,9.5-1.7V78z"/>
				<path class="st1" d="M53.2,17.5c2.3,3.6,3.8,7.9,4,12.2c0.1,2.1,0,4.3,0,6.5l0,3.3h0.8l0-3.3c0-2.2,0-4.3-0.2-6.5
					c0-0.6-0.1-1.1-0.2-1.6l-0.3-1.6c-0.1-0.5-0.3-1.1-0.4-1.6c-0.1-0.5-0.3-1.1-0.5-1.6c-0.4-1-0.7-2.1-1.3-3c-0.4-1-1-1.9-1.6-2.9
					c-0.3-0.5-0.6-0.9-0.9-1.3c-0.3-0.4-0.6-0.9-1-1.3c-0.8-0.8-1.4-1.7-2.3-2.4c-1.6-1.5-3.4-2.7-5.3-3.9c-2.3-1.2-4.7-2.1-7.2-2.7
					v0.5c2.4,0.5,4.8,1.3,7,2.5C47.5,10.8,50.9,13.8,53.2,17.5z"/>
			</g>
			<g>
				<path class="st1" d="M51.2,19.2c2.1,3.3,3.4,7.1,3.7,11.1c0.1,1.9,0.1,4,0.1,6l0,3.2H56l0-3.2c0-2,0.1-4-0.1-6.1
					c-0.3-4.1-1.7-8.1-3.9-11.5c-2.2-3.5-5.4-6.2-8.9-8.2c-2-1-4.1-1.8-6.3-2.3v0.7c2.1,0.5,4.1,1.3,5.9,2.3
					C46.1,13.1,49.1,15.8,51.2,19.2z"/>
				<path class="st1" d="M40.8,75.5c-3,1.3-6.2,2.1-9.5,2.1c-4-0.1-8-1.1-11.5-3.1c-3.4-2.1-6.4-5-8.5-8.5c-2-3.5-3.4-7.5-3.6-11.5
					c-0.1-2-0.1-4.1-0.1-6.2l0-3.4H6.8l0,3.4c0,2.1-0.1,4.1,0.1,6.3c0.3,4.2,1.7,8.3,4,11.8c2.2,3.5,5.4,6.4,8.9,8.3
					c3.6,1.9,7.6,3,11.6,3c3.2,0,6.5-0.7,9.5-2V75.5z"/>
			</g>
		</g>
	</g>
</g>
</svg>
